<svg id="Layer_1" enable-background="new 0 0 512 512" viewBox="0 0 512 512" xmlns="http://www.w3.org/2000/svg"><path d="m129.988 439.562c-1.5 2.181-3.918 3.353-6.379 3.353-1.51 0-3.036-.441-4.374-1.361-24.946-17.15-46.374-39.867-61.967-65.695-2.207-3.657-1.032-8.41 2.624-10.618 3.656-2.207 8.41-1.034 10.617 2.624 14.463 23.958 34.343 45.032 57.488 60.945 3.519 2.419 4.411 7.233 1.991 10.752zm-70.54-272.607c1.245.745 2.615 1.101 3.968 1.101 2.628 0 5.191-1.342 6.641-3.76 19.417-32.407 47.482-58.464 81.159-75.355 3.818-1.915 5.36-6.562 3.445-10.38s-6.562-5.361-10.38-3.445c-36.308 18.211-66.562 46.3-87.492 81.231-2.195 3.664-1.005 8.413 2.659 10.608zm360.332 198.289c-3.654-2.211-8.41-1.037-10.618 2.617-13.452 22.255-30.913 41.42-51.899 56.966-3.432 2.542-4.153 7.385-1.611 10.817 1.517 2.047 3.853 3.13 6.22 3.13 1.6 0 3.213-.494 4.597-1.52 22.612-16.75 41.429-37.406 55.928-61.391 2.211-3.656 1.039-8.41-2.617-10.619zm-87.69-274.432c32.023 16.935 58.811 42.345 77.468 73.484 1.449 2.419 4.012 3.76 6.641 3.76 1.353 0 2.723-.355 3.968-1.101 3.664-2.196 4.854-6.945 2.659-10.609-20.109-33.563-48.984-60.952-83.505-79.208-3.775-1.995-8.455-.555-10.451 3.221-1.998 3.777-.556 8.456 3.22 10.453zm-33.706 198.066c-.17.425-.344.848-.523 1.268l8.817 13.967c1.929 3.055 1.484 7.04-1.071 9.596l-17.441 17.441c-2.556 2.556-6.54 3-9.596 1.071l-13.97-8.818c-.417.178-.839.351-1.264.521l-3.645 16.107c-.797 3.524-3.929 6.027-7.542 6.027h-24.653c-3.613 0-6.745-2.503-7.542-6.027l-3.647-16.115c-.418-.168-.836-.341-1.252-.519l-13.98 8.825c-3.056 1.928-7.041 1.484-9.596-1.071l-17.441-17.441c-2.556-2.556-3-6.541-1.071-9.596l8.817-13.967c-.179-.419-.354-.843-.523-1.268l-16.103-3.644c-3.524-.798-6.026-3.929-6.026-7.543v-24.653c0-3.614 2.502-6.745 6.027-7.543l16.106-3.644c.17-.425.344-.846.521-1.265l-8.819-13.97c-1.929-3.055-1.484-7.04 1.071-9.596l17.441-17.441c2.557-2.557 6.541-2.999 9.596-1.071l13.978 8.824c.418-.18.837-.352 1.256-.521l3.646-16.112c.797-3.524 3.929-6.027 7.542-6.027h24.653c3.613 0 6.745 2.503 7.542 6.027l3.647 16.115c.418.168.836.341 1.252.519l13.98-8.825c3.056-1.928 7.04-1.484 9.596 1.071l17.441 17.441c2.555 2.556 3 6.54 1.071 9.596l-8.819 13.97c.178.419.352.84.521 1.265l16.106 3.644c3.524.797 6.027 3.929 6.027 7.543v24.653c0 3.614-2.502 6.745-6.026 7.543zm6.662-17.365v-12.296l-14.211-3.215c-2.669-.605-4.821-2.574-5.657-5.181-.825-2.572-1.827-4.999-2.979-7.211-1.27-2.44-1.148-5.372.32-7.698l7.78-12.325-8.701-8.7-12.325 7.78c-2.307 1.456-5.212 1.588-7.642.35-2.375-1.212-4.819-2.223-7.265-3.007-2.607-.835-4.578-2.987-5.182-5.657l-3.216-14.212h-12.296l-3.216 14.212c-.605 2.677-2.586 4.833-5.203 5.664-2.427.771-4.797 1.752-7.245 3.001-2.43 1.239-5.334 1.107-7.642-.35l-12.324-7.78-8.701 8.7 7.78 12.325c1.468 2.326 1.59 5.258.32 7.698-1.152 2.213-2.154 4.64-2.979 7.211-.836 2.607-2.988 4.576-5.657 5.181l-14.212 3.215v12.296l14.212 3.216c2.677.606 4.832 2.585 5.663 5.2.813 2.557 1.785 4.909 2.973 7.191 1.27 2.44 1.148 5.372-.32 7.698l-7.78 12.325 8.701 8.7 12.324-7.78c2.307-1.455 5.211-1.587 7.642-.35 2.375 1.211 4.82 2.224 7.268 3.009 2.606.836 4.576 2.987 5.18 5.656l3.216 14.211h12.296l3.216-14.211c.604-2.669 2.574-4.82 5.181-5.656 2.568-.824 4.994-1.827 7.211-2.98 2.441-1.271 5.372-1.147 7.697.32l12.325 7.78 8.701-8.7-7.78-12.325c-1.468-2.326-1.59-5.258-.32-7.698 1.188-2.282 2.16-4.635 2.973-7.191.832-2.615 2.986-4.593 5.663-5.2zm-27.423-6.135c0 20.836-16.964 37.789-37.816 37.789-20.837 0-37.789-16.953-37.789-37.789 0-20.852 16.952-37.816 37.789-37.816 20.852 0 37.816 16.965 37.816 37.816zm-15.466 0c0-12.323-10.026-22.349-22.35-22.349-12.309 0-22.323 10.026-22.323 22.349 0 12.308 10.014 22.322 22.323 22.322 12.324 0 22.35-10.014 22.35-22.322zm90.632 188.04v27.176c0 7.197-5.855 13.054-13.053 13.054h-11.566c-2.467 10.228-11.698 17.853-22.685 17.853-10.973 0-20.194-7.625-22.658-17.853h-20.89-.027-41.568c-2.466 10.228-11.698 17.853-22.684 17.853-10.987 0-20.218-7.625-22.685-17.853h-15.68c-7.198 0-13.054-5.857-13.054-13.054v-92.415c0-4.271 3.462-7.734 7.733-7.734h107.964c4.271 0 7.733 3.463 7.733 7.734v7.156h32.771c8.887 0 12.288 8.124 13.455 11.047l15.318 33.981h8.523c7.198 0 13.053 5.857 13.053 13.055zm-147.261 34.772c0-4.34-3.531-7.871-7.87-7.871-4.34 0-7.871 3.531-7.871 7.871 0 4.324 3.531 7.842 7.871 7.842 4.34.001 7.87-3.518 7.87-7.842zm48.676-92.278h-92.498v82.268h14.875c3.754-7.873 11.789-13.328 21.077-13.328 9.287 0 17.322 5.454 21.076 13.328h35.47v-68.776h-.027c0-.182.021-.359.027-.54zm15.466 29.808h37.977l-5.922-13.138c-.047-.105-.092-.211-.134-.317-.259-.652-.466-1.123-.629-1.463h-31.292zm43.685 62.47c0-4.34-3.531-7.871-7.871-7.871-4.324 0-7.843 3.531-7.843 7.871 0 4.324 3.518 7.842 7.843 7.842 4.341.001 7.871-3.518 7.871-7.842zm23.968-32.359h-11.106c-3.041 0-5.8-1.783-7.05-4.556l-4.547-10.088h-44.95v36.992h14.763c3.75-7.873 11.776-13.328 21.052-13.328 9.287 0 17.323 5.454 21.077 13.328h10.761zm-223.579-113.503h-103.577c-4.271 0-7.733-3.462-7.733-7.734v-33.347c0-18.079 11.698-33.468 27.918-39.023-7.485-7.849-12.095-18.461-12.095-30.137 0-24.088 19.609-43.686 43.712-43.686 24.088 0 43.685 19.598 43.685 43.686 0 11.687-4.616 22.31-12.109 30.161 1.026.343 2.049.723 3.063 1.162 15.117 6.614 24.87 21.462 24.87 37.837v33.347c-.001 4.271-3.463 7.734-7.734 7.734zm-80.021-110.241c0 14.108 10.396 25.831 23.93 27.915h4.316c1.551 0 3.144-.038 4.778-.084 13.291-2.279 23.44-13.887 23.44-27.832 0-15.56-12.659-28.219-28.218-28.219-15.575.002-28.246 12.66-28.246 28.22zm72.287 69.16c0-10.231-6.115-19.517-15.577-23.656-6.242-2.705-13.771-2.483-21.736-2.252-.177.005-.361.009-.539.015-2.023.288-4.088.446-6.189.446-1.787 0-3.545-.12-5.276-.33h-13.015c-14.214 0-25.778 11.564-25.778 25.777v25.613h88.11zm307.192-43.164h-6.252c-4.271 0-7.733 3.463-7.733 7.734s3.462 7.734 7.733 7.734h6.252c4.271 0 7.733-3.462 7.733-7.734s-3.462-7.734-7.733-7.734zm96.364 56.191v16.097c0 6.426-5.216 11.655-11.627 11.655h-161.795c-6.427 0-11.655-5.228-11.655-11.655v-16.097c0-6.426 5.228-11.655 11.655-11.655h8.364v-124.857c0-4.271 3.462-7.734 7.733-7.734h33.923c4.271 0 7.733 3.463 7.733 7.734v35.562l32.359 12.357v-7.033c0-2.544 1.251-4.926 3.347-6.369 2.096-1.444 4.766-1.764 7.144-.856l47.853 18.264c2.996 1.143 4.975 4.017 4.975 7.224v65.705h8.365c6.41.002 11.626 5.231 11.626 11.658zm-67.844-11.656h32.386v-60.38l-32.386-12.36zm-47.825 0h32.359v-60.38l-32.359-12.358zm-33.923-111.228h18.456v-5.894h-18.456zm0 111.228h18.456v-95.76h-18.456zm134.126 15.468h-154.144v8.472h154.144zm-33.072-60.003h-6.252c-4.271 0-7.733 3.463-7.733 7.734s3.462 7.734 7.733 7.734h6.252c4.271 0 7.733-3.462 7.733-7.734s-3.462-7.734-7.733-7.734zm-305.409-107.607v-26.573c0-4.271 3.463-7.734 7.733-7.734h8.501v-73.163c0-2.762 1.474-5.315 3.866-6.697l60.221-34.773c2.392-1.381 5.339-1.381 7.733 0l60.248 34.772c2.394 1.381 3.868 3.934 3.868 6.697v73.164h8.501c4.271 0 7.733 3.463 7.733 7.734v26.573c0 4.271-3.462 7.734-7.733 7.734h-152.938c-4.271 0-7.733-3.463-7.733-7.734zm31.7-34.306h15.933v-44.974c0-4.271 3.462-7.734 7.733-7.734h57.67c4.271 0 7.733 3.463 7.733 7.734v44.974h15.933v-68.699l-52.514-30.308-52.488 30.307zm31.4-37.24v37.24h42.204v-37.24zm-47.634 63.812h137.471v-11.105h-137.471zm65.623-93.237h6.225c4.271 0 7.733-3.463 7.733-7.734s-3.462-7.734-7.733-7.734h-6.225c-4.271 0-7.733 3.463-7.733 7.734s3.462 7.734 7.733 7.734z"/></svg>